<svg id="dashboard" xmlns="http://www.w3.org/2000/svg" width="100%" height="100%" viewBox="0 0 24 24" fit="" preserveAspectRatio="xMidYMid meet" focusable="false">
  <path id="Path_2305" data-name="Path 2305" d="M0,0H24V24H0Z" fill="none"></path>
  <path id="cottage_FILL0_wght700_GRAD200_opsz48" d="M3.792,19.257V9.728L1.867,11.2.75,9.7,3.792,7.351v-2.9h1.9V5.9L11.8,1.268l11.05,8.46-1.141,1.5-1.9-1.473v9.505Zm1.9-1.877h5.085v-3.8h1.9v3.8h5.228V8.3L11.8,3.644,5.693,8.278ZM3.792,3.264A3.555,3.555,0,0,1,4.825.84,3.223,3.223,0,0,1,7.237-.182,1.517,1.517,0,0,0,8.354-.633,1.517,1.517,0,0,0,8.806-1.75H10.73A3.592,3.592,0,0,1,9.661.7a3.272,3.272,0,0,1-2.4,1,1.459,1.459,0,0,0-1.1.463,1.55,1.55,0,0,0-.44,1.1Zm1.9,14.115h0Z" transform="translate(0.2 3.247)"></path>
</svg>