<svg id="business_black_24dp" xmlns="http://www.w3.org/2000/svg" width="100%" height="100%" viewBox="0 0 24 24" fit="" preserveAspectRatio="xMidYMid meet" focusable="false">
  <path id="Path_26692" data-name="Path 26692" d="M0,0H24V24H0Z" fill="none"></path>
  <path id="manage_history_FILL1_wght600_GRAD0_opsz48" d="M5.881,11.013V5.924H7.438V8.248a9.329,9.329,0,0,1,2.928-2.2,8.074,8.074,0,0,1,3.532-.8A8.534,8.534,0,0,1,20.01,7.667a8.3,8.3,0,0,1,2.649,5.949v.232H20.823v-.3A6.385,6.385,0,0,0,18.7,8.968a6.824,6.824,0,0,0-4.8-1.859,6.215,6.215,0,0,0-2.754.639A7.537,7.537,0,0,0,8.855,9.456h2.161v1.557ZM5.3,13.941H7.136a6.649,6.649,0,0,0,1.836,4.706A6.272,6.272,0,0,0,13.5,20.7h.279l1.139,1.882a3.857,3.857,0,0,1-.523.058q-.267.012-.546.012a8.185,8.185,0,0,1-6.089-2.545A8.42,8.42,0,0,1,5.3,13.941Zm10.225,2.579L13.247,14.29V9.247h1.534v4.392l1.557,1.511Zm4.113,8.366-.232-1.58a2.8,2.8,0,0,1-.744-.29,2.915,2.915,0,0,1-.627-.476l-1.348.279-.7-1.185,1.139-1.046a1.225,1.225,0,0,1-.081-.511,2.406,2.406,0,0,1,.081-.534L15.99,18.5l.7-1.208,1.348.3a2.915,2.915,0,0,1,.627-.476,2.8,2.8,0,0,1,.744-.29l.232-1.58h1.511l.232,1.58a2.8,2.8,0,0,1,.744.29,3.5,3.5,0,0,1,.651.476l1.325-.3.7,1.208-1.139,1.046a1.259,1.259,0,0,1,.081.523,2.114,2.114,0,0,1-.081.523L24.8,21.633l-.7,1.185-1.325-.279a3.505,3.505,0,0,1-.651.476,2.8,2.8,0,0,1-.744.29l-.232,1.58Zm.767-3.044a1.675,1.675,0,0,0,1.766-1.766,1.759,1.759,0,0,0-.488-1.3,1.728,1.728,0,0,0-1.278-.488,1.679,1.679,0,0,0-1.789,1.789,1.728,1.728,0,0,0,.488,1.278A1.759,1.759,0,0,0,20.4,21.842Z" transform="translate(-3.049 -3.068)"></path>
</svg>