<svg id="space_dashboard_black_24dp" xmlns="http://www.w3.org/2000/svg" width="100%" height="100%" viewBox="0 0 24 24" fit="" preserveAspectRatio="xMidYMid meet" focusable="false">
  <rect id="Rectangle_7376" data-name="Rectangle 7376" width="24" height="24" fill="none"></rect>
  <path id="manage_accounts_FILL0_wght400_GRAD200_opsz48" d="M11.657,15.575a3.938,3.938,0,0,1-4.112-4.112A3.938,3.938,0,0,1,11.657,7.35a3.938,3.938,0,0,1,4.112,4.112,3.938,3.938,0,0,1-4.112,4.112ZM4.02,24.693a.876.876,0,0,1-.92-.92V21.909a3.307,3.307,0,0,1,.473-1.75,3.016,3.016,0,0,1,1.367-1.188,17.471,17.471,0,0,1,3.7-1.277,15.222,15.222,0,0,1,3.014-.332H12a2.11,2.11,0,0,0,.345-.026,6,6,0,0,0-.307.907,6.848,6.848,0,0,0-.153.983h-.23a14.637,14.637,0,0,0-2.72.268,13.057,13.057,0,0,0-3.206,1.137,1.379,1.379,0,0,0-.575.549,1.477,1.477,0,0,0-.192.728v.92h6.948a4.148,4.148,0,0,0,.37,1.022,5.319,5.319,0,0,0,.549.843ZM11.657,13.71A2.184,2.184,0,0,0,13.9,11.462a2.184,2.184,0,0,0-2.248-2.248,2.184,2.184,0,0,0-2.248,2.248,2.184,2.184,0,0,0,2.248,2.248Zm0-2.248Zm.255,11.366Zm7.458-.255a2.061,2.061,0,0,0,1.494-.613,2,2,0,0,0,.626-1.481,2.091,2.091,0,0,0-.613-1.52,2.127,2.127,0,0,0-3.014,0,2.091,2.091,0,0,0-.613,1.52,2,2,0,0,0,.626,1.481A2.061,2.061,0,0,0,19.371,22.573ZM18.2,24.08a3.2,3.2,0,0,1-.779-.332,3.956,3.956,0,0,1-.677-.485l-1.2.281a.33.33,0,0,1-.268-.013.476.476,0,0,1-.217-.192l-.46-.817a.362.362,0,0,1-.077-.294.411.411,0,0,1,.153-.268l1-.971a3.652,3.652,0,0,1-.026-.524,4.264,4.264,0,0,1,.026-.549l-1-.945a.468.468,0,0,1-.128-.268.427.427,0,0,1,.051-.294l.46-.817a.476.476,0,0,1,.217-.192.452.452,0,0,1,.319-.013l1.149.255a5.174,5.174,0,0,1,.677-.46A5.973,5.973,0,0,1,18.2,16.8l.23-1.4a.421.421,0,0,1,.153-.281.515.515,0,0,1,.332-.1h.971a.4.4,0,0,1,.294.115.664.664,0,0,1,.166.294l.2,1.379q.358.153.779.383a4.568,4.568,0,0,1,.7.46l1.149-.255a.571.571,0,0,1,.294.026.548.548,0,0,1,.243.179l.46.792a.4.4,0,0,1,.051.281.6.6,0,0,1-.128.281l-1.022.971a2.353,2.353,0,0,1,.051.549,2.027,2.027,0,0,1-.051.524l1,.971a.468.468,0,0,1,.128.268.344.344,0,0,1-.051.268l-.46.817a.448.448,0,0,1-.217.217.389.389,0,0,1-.294.013l-1.149-.281a3.255,3.255,0,0,1-.7.473,6.479,6.479,0,0,1-.779.345l-.2,1.4a.577.577,0,0,1-.166.281.426.426,0,0,1-.294.1h-.971a.567.567,0,0,1-.332-.089.4.4,0,0,1-.153-.294Z" transform="translate(-1.665 -4.609)"></path>
</svg>