<svg xmlns="http://www.w3.org/2000/svg" id="backup_table_black_24dp_1_" data-name="backup_table_black_24dp (1)" width="100%" height="100%" viewBox="0 0 24 24" fit="" preserveAspectRatio="xMidYMid meet" focusable="false">
  <g id="Group_6708" data-name="Group 6708">
    <rect id="Rectangle_6263" data-name="Rectangle 6263" width="24" height="24" fill="none"/>
  </g>
  <g id="Group_6710" data-name="Group 6710">
    <g id="Group_6709" data-name="Group 6709">
      <path id="Path_27080" data-name="Path 27080" d="M20,6V20H6v2H20a2.006,2.006,0,0,0,2-2V6Z"/>
      <path id="Path_27081" data-name="Path 27081" d="M16,2H4A2.006,2.006,0,0,0,2,4V16a2.006,2.006,0,0,0,2,2H16a2.006,2.006,0,0,0,2-2V4A2.006,2.006,0,0,0,16,2ZM9,16H4V11H9Zm7,0H11V11h5Zm0-7H4V4H16Z"/>
    </g>
  </g>
</svg>