<svg xmlns="http://www.w3.org/2000/svg" width="100%" height="100%" viewBox="0 0 24 24" fit="" preserveAspectRatio="xMidYMid meet" focusable="false">
    <path data-name="Rectangle 7376" style="fill:none" d="M0 0h24v24H0z"></path>
    <path d="M11.657 15.575a3.938 3.938 0 0 1-4.112-4.112 3.938 3.938 0 0 1 4.112-4.113 3.938 3.938 0 0 1 4.112 4.112 3.938 3.938 0 0 1-4.112 4.112zM4.02 24.693a.876.876 0 0 1-.92-.92v-1.864a3.307 3.307 0 0 1 .473-1.75 3.016 3.016 0 0 1 1.367-1.188 17.471 17.471 0 0 1 3.7-1.277 15.222 15.222 0 0 1 3.014-.332H12a2.11 2.11 0 0 0 .345-.026 6 6 0 0 0-.307.907 6.848 6.848 0 0 0-.153.983h-.23a14.637 14.637 0 0 0-2.72.268 13.057 13.057 0 0 0-3.206 1.137 1.379 1.379 0 0 0-.575.549 1.477 1.477 0 0 0-.192.728v.92h6.948a4.148 4.148 0 0 0 .37 1.022 5.319 5.319 0 0 0 .549.843zm7.637-10.983a2.184 2.184 0 0 0 2.243-2.248 2.184 2.184 0 0 0-2.248-2.248 2.184 2.184 0 0 0-2.248 2.248 2.184 2.184 0 0 0 2.248 2.248zm0-2.248zm.255 11.366z" transform="translate(-1.665 -4.609)"></path>
    <path d="M22.192 22.03a5.1 5.1 0 0 1-5.1-5.125 5.1 5.1 0 0 1 5.125-5.125 5.1 5.1 0 0 1 5.125 5.151 4.913 4.913 0 0 1-1.493 3.606 4.975 4.975 0 0 1-3.657 1.493zm-.977-2.88 3.619-3.619-.634-.631-2.985 2.985-1.479-1.506-.634.634z" transform="translate(-4.48 -.917)"></path>
</svg>