<svg xmlns="http://www.w3.org/2000/svg" width="100%" height="100%" viewBox="0 0 24 24" fit="" preserveAspectRatio="xMidYMid meet" focusable="false">
    <path data-name="Rectangle 7376" style="fill:none" d="M0 0h24v24H0z"></path>
    <path d="M7.943 18.031a9.162 9.162 0 0 1-4.379-3.342 8.966 8.966 0 0 1-1.7-5.369 8.2 8.2 0 0 1 .419-2.562L.932 7.55 0 5.989l4.425-2.562 2.539 4.379-1.584.932L4.239 6.8a8.386 8.386 0 0 0-.361 1.269 6.576 6.576 0 0 0-.128 1.298 7.15 7.15 0 0 0 1.444 4.414 7.321 7.321 0 0 0 3.7 2.644zm6.638-11.576V4.592h2.236a6.991 6.991 0 0 0-2.5-1.98 7.244 7.244 0 0 0-3.133-.7 7 7 0 0 0-2.69.512 7.28 7.28 0 0 0-2.2 1.4l-.96-1.654A9.552 9.552 0 0 1 8.012.621 8.719 8.719 0 0 1 11.157.05a9.1 9.1 0 0 1 6.685 2.888V1.331H19.7v5.124zm-.652 14.231-4.4-2.539 2.562-4.4 1.561.932-1.071 1.91a7.01 7.01 0 0 0 4.319-2.482 7.147 7.147 0 0 0 1.712-4.74 6.194 6.194 0 0 0-.047-.769 6.285 6.285 0 0 0-.14-.745h1.863a6.285 6.285 0 0 1 .14.745 6 6 0 0 1 .047.745 9.194 9.194 0 0 1-7.011 8.967l1.421.815z" transform="translate(1.763 1.631)"></path>
</svg>