<svg id="space_dashboard_black_24dp" xmlns="http://www.w3.org/2000/svg" viewBox="0 0 24 24" fit="" height="100%" width="100%" preserveAspectRatio="xMidYMid meet" focusable="false">
  <rect id="Rectangle_7376" data-name="Rectangle 7376" fill="none"></rect>
  <path id="currency_exchange_FILL0_wght500_GRAD200_opsz48" d="M10.593,20.546a8.8,8.8,0,0,1-4.745-1.433,12.074,12.074,0,0,1-3.556-3.259v1.953a.729.729,0,0,1-.244.563.81.81,0,0,1-.563.223.773.773,0,0,1-.552-.223A.745.745,0,0,1,.7,17.808V13.88A.836.836,0,0,1,.923,13.3a.779.779,0,0,1,.605-.244H5.434a.762.762,0,0,1,.573.244.79.79,0,0,1,.234.563.755.755,0,0,1-.234.552.779.779,0,0,1-.573.234H3.354a10.905,10.905,0,0,0,3.1,2.983,7.364,7.364,0,0,0,4.14,1.348,7.881,7.881,0,0,0,5.477-2.123A7.888,7.888,0,0,0,18.7,11.587a.762.762,0,0,1,.244-.541.824.824,0,0,1,1.136.053.748.748,0,0,1,.212.573,9.448,9.448,0,0,1-1,3.5,9.959,9.959,0,0,1-2.134,2.813,9.782,9.782,0,0,1-2.993,1.879A9.489,9.489,0,0,1,10.593,20.546ZM1.719,10.8a.8.8,0,0,1-.616-.255.682.682,0,0,1-.191-.573,9.339,9.339,0,0,1,.966-3.492A9.842,9.842,0,0,1,3.991,3.658a9.679,9.679,0,0,1,6.6-2.558,8.914,8.914,0,0,1,4.734,1.412,11.8,11.8,0,0,1,3.588,3.28V3.839a.779.779,0,0,1,.234-.573.755.755,0,0,1,.552-.234.79.79,0,0,1,.563.234.762.762,0,0,1,.244.573V7.745a.8.8,0,0,1-.828.828H15.752a.745.745,0,0,1-.563-.234.773.773,0,0,1-.223-.552.81.81,0,0,1,.223-.563.729.729,0,0,1,.563-.244h2.1A11.062,11.062,0,0,0,14.68,3.987a7.444,7.444,0,0,0-4.087-1.316,7.908,7.908,0,0,0-5.5,2.123A7.72,7.72,0,0,0,2.5,10.059a.843.843,0,0,1-.265.541A.751.751,0,0,1,1.719,10.8Zm8.853,6.22a.7.7,0,0,1-.5-.191.643.643,0,0,1-.2-.488v-.467A3.645,3.645,0,0,1,8.5,15.239a4.38,4.38,0,0,1-1.03-1.146.644.644,0,0,1-.064-.573.706.706,0,0,1,.425-.4.608.608,0,0,1,.446.042.787.787,0,0,1,.34.34,2.087,2.087,0,0,0,.87.913,2.536,2.536,0,0,0,1.253.318,2.02,2.02,0,0,0,1.348-.456,1.406,1.406,0,0,0,.541-1.115,1.32,1.32,0,0,0-.5-1.083,7.933,7.933,0,0,0-1.942-.955,5.084,5.084,0,0,1-2.07-1.2,2.545,2.545,0,0,1-.563-1.73,2.279,2.279,0,0,1,.626-1.635,3.019,3.019,0,0,1,1.73-.849V5.3a.61.61,0,0,1,.2-.478.721.721,0,0,1,.5-.18.683.683,0,0,1,.488.18.626.626,0,0,1,.191.478v.4a3.1,3.1,0,0,1,1.189.382,3.006,3.006,0,0,1,.892.807.633.633,0,0,1,.074.52.6.6,0,0,1-.372.414.718.718,0,0,1-.467.053.776.776,0,0,1-.425-.287,2.174,2.174,0,0,0-.69-.531,1.988,1.988,0,0,0-.881-.191,1.945,1.945,0,0,0-1.231.35,1.139,1.139,0,0,0-.446.945,1.392,1.392,0,0,0,.51,1.125,6.075,6.075,0,0,0,1.847.87,4.539,4.539,0,0,1,2.112,1.168,2.694,2.694,0,0,1,.605,1.826,2.528,2.528,0,0,1-.722,1.868,3.4,3.4,0,0,1-2.038.892v.425a.654.654,0,0,1-.679.679Z" transform="translate(1.396 1.177)"></path>
</svg>