<svg id="space_dashboard_black_24dp" xmlns="http://www.w3.org/2000/svg" width="100%" height="100%" viewBox="0 0 24 24" fit="" preserveAspectRatio="xMidYMid meet" focusable="false">
  <rect id="Rectangle_7376" data-name="Rectangle 7376" width="24" height="24" fill="none"></rect>
  <path id="paid_FILL0_wght500_GRAD200_opsz48" d="M11.664,18.912h1.445V17.756a3.78,3.78,0,0,0,2.145-.867A2.42,2.42,0,0,0,16,15.021a2.843,2.843,0,0,0-.645-1.912,5.622,5.622,0,0,0-2.223-1.378,10.693,10.693,0,0,1-1.845-.956,1.3,1.3,0,0,1-.6-1.112,1.223,1.223,0,0,1,.467-1,2,2,0,0,1,1.289-.378,1.986,1.986,0,0,1,1.156.322,2.584,2.584,0,0,1,.8.967L15.666,9a3.218,3.218,0,0,0-1-1.356,3.113,3.113,0,0,0-1.512-.578V5.951H11.709V7.085A3.022,3.022,0,0,0,9.9,7.963a2.426,2.426,0,0,0-.656,1.723A2.456,2.456,0,0,0,9.93,11.52,6.058,6.058,0,0,0,12,12.732a7.99,7.99,0,0,1,1.99,1.089,1.526,1.526,0,0,1,.567,1.2A1.28,1.28,0,0,1,14,16.1a2.368,2.368,0,0,1-1.445.411,2.455,2.455,0,0,1-1.512-.5,2.5,2.5,0,0,1-.911-1.367L8.8,15.088a4.643,4.643,0,0,0,1.145,1.723,4.039,4.039,0,0,0,1.723.9Zm.756,2.779a8.969,8.969,0,0,1-3.59-.734,9.287,9.287,0,0,1-4.946-4.946,9.179,9.179,0,0,1,0-7.192A9.317,9.317,0,0,1,8.83,3.884a9.179,9.179,0,0,1,7.192,0,9.346,9.346,0,0,1,4.935,4.935,9.179,9.179,0,0,1,0,7.192,9.317,9.317,0,0,1-4.935,4.946A8.944,8.944,0,0,1,12.42,21.691Zm0-9.27Zm0,7.559a7.266,7.266,0,0,0,5.347-2.223,7.3,7.3,0,0,0,2.212-5.335,7.277,7.277,0,0,0-2.223-5.335A7.277,7.277,0,0,0,12.42,4.862,7.3,7.3,0,0,0,7.085,7.074,7.266,7.266,0,0,0,4.862,12.42a7.284,7.284,0,0,0,2.212,5.347A7.284,7.284,0,0,0,12.42,19.979Z" transform="translate(-0.42 -0.421)"></path>
</svg>