<svg xmlns="http://www.w3.org/2000/svg" width="100%" height="100%" viewBox="0 0 24 24" fit="" preserveAspectRatio="xMidYMid meet" focusable="false">
    <path data-name="Rectangle 7376" style="fill:none" d="M0 0h24v24H0z"></path>
    <path d="M7.863 22.985a2.829 2.829 0 0 1-2.063-.839 2.8 2.8 0 0 1-.851-2.074v-3.24h3.124V3.5l1.469 1.468L11.01 3.5l1.445 1.468L13.923 3.5l1.445 1.468L16.837 3.5l1.445 1.468L19.75 3.5l1.468 1.468L22.71 3.5v16.572a2.8 2.8 0 0 1-.851 2.074 2.829 2.829 0 0 1-2.063.839zM19.8 21.121a1 1 0 0 0 1.049-1.049V6.344H9.915v10.488h8.834v3.24a1 1 0 0 0 1.051 1.049zM11.15 10.1V8.7h5.361v1.4zm0 3.123v-1.4h5.361v1.4zm7.528-3.123a.717.717 0 1 1 .489-.21.671.671 0 0 1-.489.21zm0 3.007a.717.717 0 1 1 .489-.21.671.671 0 0 1-.489.203zM7.84 21.121h9.067V18.7H6.815v1.375a1.016 1.016 0 0 0 1.025 1.046zm-1.026 0z" transform="translate(-1.83 -1.243)"></path>
</svg>