<svg xmlns="http://www.w3.org/2000/svg" width="100%" height="100%" viewBox="0 0 24 24" fit="" preserveAspectRatio="xMidYMid meet" focusable="false">
    <path data-name="Rectangle 7376" style="fill:none" d="M0 0h24v24H0z"></path>
    <path data-name="261081054ea6aeb3ca95a513e31e46dd" d="M21.067 8.753a3.2 3.2 0 0 0-3.192-3.193 3.156 3.156 0 0 0-1.368.32V4.192a3.188 3.188 0 0 0-5.473-2.227A3.181 3.181 0 0 0 5.88 5.56H4.192a3.188 3.188 0 0 0-2.227 5.473 3.181 3.181 0 0 0 3.6 5.153v1.689a3.188 3.188 0 0 0 5.468 2.225 3.181 3.181 0 0 0 5.153-3.6h1.689a3.188 3.188 0 0 0 2.225-5.467 3.18 3.18 0 0 0 .965-2.28zm-9.122-4.561a1.368 1.368 0 1 1 2.737 0v4.561a1.368 1.368 0 0 1-2.737 0zM5.56 13.314a1.368 1.368 0 1 1-1.368-1.368H5.56zm4.561 4.561a1.368 1.368 0 1 1-2.737 0v-4.561a1.368 1.368 0 1 1 2.737 0zm-1.368-7.754H4.192a1.368 1.368 0 1 1 0-2.737h4.561a1.368 1.368 0 1 1 0 2.737zm1.368-4.561H8.753a1.368 1.368 0 1 1 1.368-1.368zm.912 5.526-.053-.053.053-.053.053.053-.053.053zm2.28 8.157a1.37 1.37 0 0 1-1.368-1.368v-1.369h1.368a1.368 1.368 0 0 1 0 2.737zm4.561-4.561h-4.56a1.368 1.368 0 1 1 0-2.737h4.561a1.368 1.368 0 0 1 0 2.737zm0-4.561h-1.368V8.753a1.368 1.368 0 1 1 1.368 1.368z" transform="translate(.972 .967)"></path>
</svg>