<svg xmlns="http://www.w3.org/2000/svg" width="100%" height="100%" viewBox="0 0 24 24" fit="" preserveAspectRatio="xMidYMid meet" focusable="false">
    <g data-name="Group 7771">
        <path data-name="Path 27102" d="M19 3H5a2.006 2.006 0 0 0-2 2v14a2.006 2.006 0 0 0 2 2h14a2.006 2.006 0 0 0 2-2V5a2.006 2.006 0 0 0-2-2zm0 16H5V5h14zM7 10h2v7H7zm4-3h2v10h-2zm4 6h2v4h-2z" transform="translate(0 .107)"></path>
        <path data-name="Rectangle 6600" transform="rotate(90 12 12)" style="fill:none" d="M0 0h24v24H0z"></path>
    </g>
</svg>