<svg xmlns="http://www.w3.org/2000/svg" width="100%" height="100%" viewBox="0 0 24 24" fit="" preserveAspectRatio="xMidYMid meet" focusable="false">
    <path data-name="Rectangle 6060" transform="rotate(90 12 12)" style="fill:none" d="M0 0h24v24H0z"></path>
    <path d="m153.049 177.258 5.819-5.833-1.07-1.07-4.734 4.735-2.581-2.581-1.084 1.085zm-5.206 4.7a1.987 1.987 0 0 1-1.974-1.974v-16.692a1.92 1.92 0 0 1 .582-1.4 1.893 1.893 0 0 1 1.392-.586h9.024l5.668 5.668v13.011a1.893 1.893 0 0 1-.586 1.392 1.92 1.92 0 0 1-1.4.582zm7.994-14.03v-4.635h-7.994v16.691h12.7v-12.057zm-7.994-4.635z" transform="translate(-142.202 -159.631)"></path>
</svg>