<svg id="space_dashboard_black_24dp" xmlns="http://www.w3.org/2000/svg" width="100%" height="100%" viewBox="0 0 24 24" fit="" preserveAspectRatio="xMidYMid meet" focusable="false">
  <rect id="Rectangle_7376" data-name="Rectangle 7376" width="24" height="24" fill="none"></rect>
  <path id="distance_FILL0_wght400_GRAD0_opsz24" d="M245.978-860.075a9.643,9.643,0,0,1-4.309-.834A2.472,2.472,0,0,1,240-863.064a1.982,1.982,0,0,1,.722-1.519,5.1,5.1,0,0,1,1.993-1.021l.573,1.893a4.048,4.048,0,0,0-.772.311,1.655,1.655,0,0,0-.473.336,2.948,2.948,0,0,0,1.494.7,9.828,9.828,0,0,0,2.441.3,9.976,9.976,0,0,0,2.453-.3,2.966,2.966,0,0,0,1.507-.7,1.655,1.655,0,0,0-.473-.336,4.048,4.048,0,0,0-.772-.311l.573-1.893a4.987,4.987,0,0,1,1.98,1.021,2,2,0,0,1,.71,1.519,2.472,2.472,0,0,1-1.669,2.154A9.643,9.643,0,0,1,245.978-860.075Zm0-6.65a13.764,13.764,0,0,1,.946-1.507q.5-.685.971-1.308a19.306,19.306,0,0,0,1.469-2.154,4.733,4.733,0,0,0,.548-2.379,3.8,3.8,0,0,0-1.146-2.789,3.8,3.8,0,0,0-2.79-1.146,3.8,3.8,0,0,0-2.79,1.146,3.8,3.8,0,0,0-1.146,2.789,4.733,4.733,0,0,0,.548,2.379,19.306,19.306,0,0,0,1.469,2.154q.473.623.971,1.308A13.761,13.761,0,0,1,245.978-866.725Zm0,3.661a.831.831,0,0,1-.5-.162.9.9,0,0,1-.324-.436,10.49,10.49,0,0,0-1.445-2.964q-.872-1.2-1.694-2.291a16.069,16.069,0,0,1-1.382-2.266,6.42,6.42,0,0,1-.585-2.889,5.724,5.724,0,0,1,1.719-4.209A5.724,5.724,0,0,1,245.978-880a5.724,5.724,0,0,1,4.209,1.719,5.724,5.724,0,0,1,1.719,4.209,6.539,6.539,0,0,1-.573,2.889,14.123,14.123,0,0,1-1.395,2.266q-.8,1.1-1.681,2.291a10.283,10.283,0,0,0-1.457,2.964.9.9,0,0,1-.324.436A.831.831,0,0,1,245.978-863.064Zm0-8.892a2.038,2.038,0,0,0,1.494-.623,2.038,2.038,0,0,0,.623-1.494,2.038,2.038,0,0,0-.623-1.494,2.038,2.038,0,0,0-1.494-.623,2.038,2.038,0,0,0-1.494.623,2.038,2.038,0,0,0-.623,1.494,2.038,2.038,0,0,0,.623,1.494A2.038,2.038,0,0,0,245.978-871.955ZM245.978-874.072Z" transform="translate(-233.978 882.037)"></path>
</svg>