<svg xmlns="http://www.w3.org/2000/svg" viewBox="0 0 24 24" fit="" height="100%" width="100%" preserveAspectRatio="xMidYMid meet" focusable="false">
    <path data-name="Rectangle 7376" style="fill:none" d="M0 0h24v24H0z"></path>
    <path d="M6.8 20.921v-1.978h2.228V11.66a6.6 6.6 0 0 1 1.289-3.992 5.628 5.628 0 0 1 3.442-2.24v-.651a1.469 1.469 0 0 1 .488-1.126 1.729 1.729 0 0 1 2.328 0 1.469 1.469 0 0 1 .488 1.126v.651a5.731 5.731 0 0 1 3.467 2.24 6.515 6.515 0 0 1 1.314 3.992v7.283h2.2v1.977zm8.61-7.659zm0 10.712a2.061 2.061 0 0 1-1.489-.626 2 2 0 0 1-.638-1.477h4.255a2.007 2.007 0 0 1-.626 1.489 2.069 2.069 0 0 1-1.5.613zM11 18.943h8.84V11.66a4.338 4.338 0 0 0-1.276-3.154 4.213 4.213 0 0 0-3.129-1.3 4.254 4.254 0 0 0-3.141 1.3A4.316 4.316 0 0 0 11 11.66z" transform="translate(-3.423 -1.587)"></path>
</svg>